# xmcd
#
# Track frame offsets:
#	150
#	16942
#	34382
#	55072
#	76172
#	91870
#	115275
#	139925
#	156312
#	183552
#	199327
#	216125
#	244405
#
# Disc length: 3646 seconds
#
# Revision: 2
# Processed by: cddbd v1.5.2PL0 Copyright (c) Steve Scherf et al.
# Submitted via: MusicWizard 7.2.0
#
DISCID=b60e3c0d
DTITLE=Joey DeFrancesco - Singin' And Swingin'
DYEAR=2001
DGENRE=Organ
TTITLE0=You'd Be So Nice To Come Home To
TTITLE1=Mr. Dennis Houlihan
TTITLE2=They Say It's Wonderful
TTITLE3=Did You Hear Him Holler
TTITLE4=Mack The Knife
TTITLE5=One Mint Julep
TTITLE6=In The Wee Small Hours
TTITLE7=I Thought About You
TTITLE8=The Sidewalk Is Wild
TTITLE9=Let Me Love You Tonight
TTITLE10=Kansas City
TTITLE11=Danny Boy
TTITLE12=I'm Getting Sentimental Over You
EXTD=Joey DeFrancesco org, vic, tp - Paul "Dukie" Bollenback g - Byron "Wookie" Landham dr - Mike How
EXTD=ard g(7, 13) - Paul Leibelshon dr (7) - \nBig Band 1, 2, 5, 6, 8, 9, 10, 11
EXTT0=
EXTT1=
EXTT2=
EXTT3=
EXTT4=
EXTT5=
EXTT6=
EXTT7=
EXTT8=
EXTT9=
EXTT10=
EXTT11=
EXTT12=
PLAYORDER=
